<mxfile host="app.diagrams.net" agent="Mozilla/5.0 (Windows NT 10.0; Win64; x64) AppleWebKit/537.36 (KHTML, like Gecko) Chrome/131.0.0.0 Safari/537.36" version="25.0.3">
  <diagram name="Trang-1" id="YfmCH4cJRZLncgsH0tfn">
    <mxGraphModel dx="552" dy="741" grid="1" gridSize="10" guides="1" tooltips="1" connect="1" arrows="1" fold="1" page="1" pageScale="1" pageWidth="827" pageHeight="1169" math="0" shadow="0">
      <root>
        <mxCell id="0" />
        <mxCell id="1" parent="0" />
        <mxCell id="x7EA4rBnLXWyLU053kl2-1" value="Start" style="strokeWidth=2;html=1;shape=mxgraph.flowchart.start_1;whiteSpace=wrap;" vertex="1" parent="1">
          <mxGeometry x="350" y="330" width="100" height="60" as="geometry" />
        </mxCell>
        <mxCell id="x7EA4rBnLXWyLU053kl2-2" value="" style="endArrow=classic;html=1;rounded=0;exitX=0.5;exitY=1;exitDx=0;exitDy=0;exitPerimeter=0;" edge="1" parent="1" source="x7EA4rBnLXWyLU053kl2-1">
          <mxGeometry width="50" height="50" relative="1" as="geometry">
            <mxPoint x="390" y="600" as="sourcePoint" />
            <mxPoint x="400" y="440" as="targetPoint" />
          </mxGeometry>
        </mxCell>
        <mxCell id="x7EA4rBnLXWyLU053kl2-3" value="Input a&lt;div&gt;Input b&lt;/div&gt;" style="shape=parallelogram;html=1;strokeWidth=2;perimeter=parallelogramPerimeter;whiteSpace=wrap;rounded=1;arcSize=12;size=0.23;fillColor=#a20025;strokeColor=#6F0000;fontColor=#ffffff;" vertex="1" parent="1">
          <mxGeometry x="350" y="440" width="100" height="60" as="geometry" />
        </mxCell>
        <mxCell id="x7EA4rBnLXWyLU053kl2-4" value="" style="endArrow=classic;html=1;rounded=0;exitX=0.5;exitY=1;exitDx=0;exitDy=0;" edge="1" parent="1" source="x7EA4rBnLXWyLU053kl2-3">
          <mxGeometry width="50" height="50" relative="1" as="geometry">
            <mxPoint x="440" y="520" as="sourcePoint" />
            <mxPoint x="400" y="560" as="targetPoint" />
          </mxGeometry>
        </mxCell>
        <mxCell id="x7EA4rBnLXWyLU053kl2-5" value="a = 0&lt;div&gt;Yes :&amp;nbsp;&lt;/div&gt;&lt;div&gt;b = 0&lt;/div&gt;&lt;div&gt;Yes : Phương trình vô số nghiệm&lt;/div&gt;&lt;div&gt;No : Phương trình vô nghiệm&lt;/div&gt;&lt;div&gt;No :&lt;/div&gt;&lt;div&gt;x = -b / a&lt;/div&gt;" style="strokeWidth=2;html=1;shape=mxgraph.flowchart.decision;whiteSpace=wrap;fillColor=#0050ef;strokeColor=#001DBC;fontColor=#ffffff;" vertex="1" parent="1">
          <mxGeometry x="300" y="560" width="200" height="200" as="geometry" />
        </mxCell>
        <mxCell id="x7EA4rBnLXWyLU053kl2-6" value="" style="endArrow=classic;html=1;rounded=0;exitX=0.5;exitY=1;exitDx=0;exitDy=0;exitPerimeter=0;entryX=0.5;entryY=0;entryDx=0;entryDy=0;entryPerimeter=0;" edge="1" parent="1" source="x7EA4rBnLXWyLU053kl2-5" target="x7EA4rBnLXWyLU053kl2-7">
          <mxGeometry width="50" height="50" relative="1" as="geometry">
            <mxPoint x="390" y="600" as="sourcePoint" />
            <mxPoint x="400" y="880" as="targetPoint" />
          </mxGeometry>
        </mxCell>
        <mxCell id="x7EA4rBnLXWyLU053kl2-7" value="End" style="strokeWidth=2;html=1;shape=mxgraph.flowchart.start_1;whiteSpace=wrap;fillColor=#6a00ff;fontColor=#ffffff;strokeColor=#3700CC;" vertex="1" parent="1">
          <mxGeometry x="350" y="800" width="100" height="60" as="geometry" />
        </mxCell>
      </root>
    </mxGraphModel>
  </diagram>
</mxfile>
